<?xml version="1.0" encoding="UTF-8" standalone="no"?>
<!-- Created with Inkscape (http://www.inkscape.org/) -->

<svg
   width="32"
   height="32"
   viewBox="0 0 32 32"
   version="1.1"
   id="svg1"
   inkscape:version="1.3 (0e150ed6c4, 2023-07-21)"
   sodipodi:docname="enc-icon.svg"
   xmlns:inkscape="http://www.inkscape.org/namespaces/inkscape"
   xmlns:sodipodi="http://sodipodi.sourceforge.net/DTD/sodipodi-0.dtd"
   xmlns:xlink="http://www.w3.org/1999/xlink"
   xmlns="http://www.w3.org/2000/svg"
   xmlns:svg="http://www.w3.org/2000/svg">
  <sodipodi:namedview
     id="namedview1"
     pagecolor="#505050"
     bordercolor="#eeeeee"
     borderopacity="1"
     inkscape:showpageshadow="0"
     inkscape:pageopacity="0"
     inkscape:pagecheckerboard="0"
     inkscape:deskcolor="#505050"
     inkscape:document-units="px"
     showguides="false"
     inkscape:zoom="11.313708"
     inkscape:cx="18.075417"
     inkscape:cy="22.627417"
     inkscape:window-width="1920"
     inkscape:window-height="1043"
     inkscape:window-x="0"
     inkscape:window-y="0"
     inkscape:window-maximized="1"
     inkscape:current-layer="layer1" />
  <defs
     id="defs1">
    <linearGradient
       id="swatch51"
       inkscape:swatch="solid">
      <stop
         style="stop-color:#378b34;stop-opacity:1;"
         offset="0"
         id="stop51" />
    </linearGradient>
    <linearGradient
       inkscape:collect="always"
       xlink:href="#swatch51"
       id="linearGradient51"
       x1="6.0320777"
       y1="15.672127"
       x2="26.637389"
       y2="15.672127"
       gradientUnits="userSpaceOnUse" />
  </defs>
  <g
     inkscape:label="Layer 1"
     inkscape:groupmode="layer"
     id="layer1">
    <path
       id="path46"
       style="fill:#beb8af;fill-opacity:1;stroke:#ffffff;stroke-width:0;stroke-linejoin:bevel;stroke-dasharray:none;paint-order:markers stroke fill;fill-rule:evenodd"
       d="M 16 0 A 15.999999 15.999999 0 0 0 0 16 A 15.999999 15.999999 0 0 0 16 32 A 15.999999 15.999999 0 0 0 32 16 A 15.999999 15.999999 0 0 0 16 0 z M 7.5996094 5.859375 C 8.0942755 5.859375 8.4698961 6.0497348 8.7265625 6.4277344 C 8.9878956 6.805734 9.1191406 7.2665005 9.1191406 7.8125 L 9.1191406 8.4785156 C 9.1191406 8.8285153 9.0643645 9.148167 8.9570312 9.4375 C 8.8543647 9.7221664 8.6852654 9.9590575 8.4472656 10.150391 C 8.2139325 10.337057 7.9309424 10.431641 7.5996094 10.431641 C 7.1049432 10.431641 6.7281299 10.241281 6.4667969 9.8632812 C 6.2101305 9.4852816 6.0800781 9.0245151 6.0800781 8.4785156 L 6.0800781 7.8125 C 6.0800781 7.4625004 6.1317084 7.1459945 6.234375 6.8613281 C 6.3417082 6.5719951 6.5127606 6.3331509 6.7460938 6.1464844 C 6.9840935 5.9551512 7.2682764 5.859375 7.5996094 5.859375 z M 11.457031 5.859375 L 12.150391 5.859375 L 12.150391 9.6269531 L 12.857422 9.6269531 C 13.165422 9.6269531 13.318359 9.7432294 13.318359 9.9765625 C 13.318359 10.209896 13.165422 10.326172 12.857422 10.326172 L 10.742188 10.326172 C 10.434188 10.326172 10.28125 10.209896 10.28125 9.9765625 C 10.28125 9.8412293 10.321057 9.7497916 10.400391 9.703125 C 10.479724 9.6517917 10.592854 9.6269531 10.742188 9.6269531 L 11.449219 9.6269531 L 11.449219 6.6308594 L 10.876953 7.0351562 C 10.806953 7.0958229 10.711177 7.1269531 10.589844 7.1269531 C 10.51051 7.1269531 10.439573 7.1021145 10.378906 7.0507812 C 10.322906 6.999448 10.294922 6.9316562 10.294922 6.8476562 C 10.294922 6.7729897 10.311083 6.7107291 10.34375 6.6640625 C 10.376417 6.6127292 10.432385 6.5599062 10.511719 6.5039062 L 11.457031 5.859375 z M 16 5.859375 C 16.494666 5.859375 16.870287 6.0497348 17.126953 6.4277344 C 17.388286 6.805734 17.519531 7.2665005 17.519531 7.8125 L 17.519531 8.4785156 C 17.519531 8.8285153 17.464755 9.148167 17.357422 9.4375 C 17.254755 9.7221664 17.085656 9.9590575 16.847656 10.150391 C 16.614323 10.337057 16.331333 10.431641 16 10.431641 C 15.505334 10.431641 15.126567 10.241281 14.865234 9.8632812 C 14.608568 9.4852816 14.480469 9.0245151 14.480469 8.4785156 L 14.480469 7.8125 C 14.480469 7.4625004 14.532099 7.1459945 14.634766 6.8613281 C 14.742099 6.5719951 14.913151 6.3331509 15.146484 6.1464844 C 15.384484 5.9551512 15.668667 5.859375 16 5.859375 z M 20.199219 5.859375 C 20.693885 5.859375 21.069505 6.0497348 21.326172 6.4277344 C 21.587505 6.805734 21.71875 7.2665005 21.71875 7.8125 L 21.71875 8.4785156 C 21.71875 8.8285153 21.665927 9.148167 21.558594 9.4375 C 21.455927 9.7221664 21.284875 9.9590575 21.046875 10.150391 C 20.813542 10.337057 20.530552 10.431641 20.199219 10.431641 C 19.704553 10.431641 19.327739 10.241281 19.066406 9.8632812 C 18.80974 9.4852816 18.681641 9.0245151 18.681641 8.4785156 L 18.681641 7.8125 C 18.681641 7.4625004 18.733271 7.1459945 18.835938 6.8613281 C 18.943271 6.5719951 19.11237 6.3331509 19.345703 6.1464844 C 19.583703 5.9551512 19.867886 5.859375 20.199219 5.859375 z M 24.056641 5.859375 L 24.75 5.859375 L 24.75 9.6269531 L 25.457031 9.6269531 C 25.765031 9.6269531 25.919922 9.7432294 25.919922 9.9765625 C 25.919922 10.209896 25.765031 10.326172 25.457031 10.326172 L 23.34375 10.326172 C 23.03575 10.326172 22.880859 10.209896 22.880859 9.9765625 C 22.880859 9.8412293 22.920667 9.7497916 23 9.703125 C 23.079333 9.6517917 23.194417 9.6269531 23.34375 9.6269531 L 24.050781 9.6269531 L 24.050781 6.6308594 L 23.476562 7.0351562 C 23.406563 7.0958229 23.310786 7.1269531 23.189453 7.1269531 C 23.11012 7.1269531 23.039182 7.1021145 22.978516 7.0507812 C 22.922516 6.999448 22.894531 6.9316562 22.894531 6.8476562 C 22.894531 6.7729897 22.910693 6.7107291 22.943359 6.6640625 C 22.976026 6.6127292 23.031995 6.5599062 23.111328 6.5039062 L 24.056641 5.859375 z M 7.5996094 6.5605469 C 7.3522763 6.5605469 7.1551926 6.6693388 7.0058594 6.8886719 C 6.8565262 7.108005 6.78125 7.3996722 6.78125 7.7636719 L 6.78125 8.5273438 C 6.78125 8.8913434 6.8565262 9.1830106 7.0058594 9.4023438 C 7.1551926 9.6216769 7.3522763 9.7304688 7.5996094 9.7304688 C 7.8469425 9.7304688 8.0459793 9.6216769 8.1953125 9.4023438 C 8.3446457 9.1830106 8.4199219 8.8913434 8.4199219 8.5273438 L 8.4199219 7.7636719 C 8.4199219 7.3996722 8.3446457 7.108005 8.1953125 6.8886719 C 8.0459793 6.6693388 7.8469425 6.5605469 7.5996094 6.5605469 z M 16 6.5605469 C 15.752667 6.5605469 15.55363 6.6693388 15.404297 6.8886719 C 15.254964 7.108005 15.181641 7.3996722 15.181641 7.7636719 L 15.181641 8.5273438 C 15.181641 8.8913434 15.254964 9.1830106 15.404297 9.4023438 C 15.55363 9.6216769 15.752667 9.7304688 16 9.7304688 C 16.247333 9.7304688 16.44637 9.6216769 16.595703 9.4023438 C 16.745036 9.1830106 16.818359 8.8913434 16.818359 8.5273438 L 16.818359 7.7636719 C 16.818359 7.3996722 16.745036 7.108005 16.595703 6.8886719 C 16.44637 6.6693388 16.247333 6.5605469 16 6.5605469 z M 20.199219 6.5605469 C 19.951886 6.5605469 19.754802 6.6693388 19.605469 6.8886719 C 19.456136 7.108005 19.380859 7.3996722 19.380859 7.7636719 L 19.380859 8.5273438 C 19.380859 8.8913434 19.456136 9.1830106 19.605469 9.4023438 C 19.754802 9.6216769 19.951886 9.7304688 20.199219 9.7304688 C 20.446552 9.7304688 20.645589 9.6216769 20.794922 9.4023438 C 20.944255 9.1830106 21.019531 8.8913434 21.019531 8.5273438 L 21.019531 7.7636719 C 21.019531 7.3996722 20.944255 7.108005 20.794922 6.8886719 C 20.645589 6.6693388 20.446552 6.5605469 20.199219 6.5605469 z M 5.5 13.859375 C 5.9946662 13.859375 6.3702867 14.049735 6.6269531 14.427734 C 6.8882862 14.805734 7.0195312 15.266501 7.0195312 15.8125 L 7.0195312 16.478516 C 7.0195312 16.828515 6.9647551 17.148167 6.8574219 17.4375 C 6.7547553 17.722166 6.585656 17.959057 6.3476562 18.150391 C 6.1143231 18.337057 5.831333 18.431641 5.5 18.431641 C 5.0053338 18.431641 4.6265674 18.241281 4.3652344 17.863281 C 4.108568 17.485282 3.9804687 17.024515 3.9804688 16.478516 L 3.9804688 15.8125 C 3.9804687 15.4625 4.0320991 15.145995 4.1347656 14.861328 C 4.2420989 14.571995 4.4131513 14.333151 4.6464844 14.146484 C 4.8844841 13.955151 5.168667 13.859375 5.5 13.859375 z M 9.6992188 13.859375 C 10.193885 13.859375 10.569505 14.049735 10.826172 14.427734 C 11.087505 14.805734 11.21875 15.266501 11.21875 15.8125 L 11.21875 16.478516 C 11.21875 16.828515 11.165927 17.148167 11.058594 17.4375 C 10.955927 17.722166 10.784875 17.959057 10.546875 18.150391 C 10.313542 18.337057 10.030552 18.431641 9.6992188 18.431641 C 9.2045526 18.431641 8.8277393 18.241281 8.5664062 17.863281 C 8.3097398 17.485282 8.1816406 17.024515 8.1816406 16.478516 L 8.1816406 15.8125 C 8.1816406 15.4625 8.2332709 15.145995 8.3359375 14.861328 C 8.4432707 14.571995 8.61237 14.333151 8.8457031 14.146484 C 9.0837029 13.955151 9.3678857 13.859375 9.6992188 13.859375 z M 13.556641 13.859375 L 14.25 13.859375 L 14.25 17.626953 L 14.957031 17.626953 C 15.265031 17.626953 15.419922 17.743229 15.419922 17.976562 C 15.419922 18.209896 15.265031 18.326172 14.957031 18.326172 L 12.84375 18.326172 C 12.53575 18.326172 12.380859 18.209896 12.380859 17.976562 C 12.380859 17.841229 12.420667 17.749792 12.5 17.703125 C 12.579333 17.651792 12.694417 17.626953 12.84375 17.626953 L 13.550781 17.626953 L 13.550781 14.630859 L 12.976562 15.035156 C 12.906563 15.095823 12.810786 15.126953 12.689453 15.126953 C 12.61012 15.126953 12.539182 15.102115 12.478516 15.050781 C 12.422516 14.999448 12.394531 14.931656 12.394531 14.847656 C 12.394531 14.77299 12.410693 14.710729 12.443359 14.664062 C 12.476026 14.612729 12.531995 14.559906 12.611328 14.503906 L 13.556641 13.859375 z M 18.099609 13.859375 C 18.594276 13.859375 18.969896 14.049735 19.226562 14.427734 C 19.487896 14.805734 19.619141 15.266501 19.619141 15.8125 L 19.619141 16.478516 C 19.619141 16.828515 19.564364 17.148167 19.457031 17.4375 C 19.354365 17.722166 19.185265 17.959057 18.947266 18.150391 C 18.713933 18.337057 18.430942 18.431641 18.099609 18.431641 C 17.604943 18.431641 17.22813 18.241281 16.966797 17.863281 C 16.71013 17.485282 16.580078 17.024515 16.580078 16.478516 L 16.580078 15.8125 C 16.580078 15.4625 16.631708 15.145995 16.734375 14.861328 C 16.841708 14.571995 17.012761 14.333151 17.246094 14.146484 C 17.484094 13.955151 17.768276 13.859375 18.099609 13.859375 z M 21.957031 13.859375 L 22.650391 13.859375 L 22.650391 17.626953 L 23.357422 17.626953 C 23.665422 17.626953 23.818359 17.743229 23.818359 17.976562 C 23.818359 18.209896 23.665422 18.326172 23.357422 18.326172 L 21.242188 18.326172 C 20.934188 18.326172 20.78125 18.209896 20.78125 17.976562 C 20.78125 17.841229 20.821057 17.749792 20.900391 17.703125 C 20.979724 17.651792 21.092854 17.626953 21.242188 17.626953 L 21.949219 17.626953 L 21.949219 14.630859 L 21.376953 15.035156 C 21.306953 15.095823 21.211177 15.126953 21.089844 15.126953 C 21.01051 15.126953 20.939573 15.102115 20.878906 15.050781 C 20.822906 14.999448 20.794922 14.931656 20.794922 14.847656 C 20.794922 14.77299 20.811083 14.710729 20.84375 14.664062 C 20.876417 14.612729 20.932385 14.559906 21.011719 14.503906 L 21.957031 13.859375 z M 26.5 13.859375 C 26.994666 13.859375 27.370287 14.049735 27.626953 14.427734 C 27.888286 14.805734 28.019531 15.266501 28.019531 15.8125 L 28.019531 16.478516 C 28.019531 16.828515 27.964755 17.148167 27.857422 17.4375 C 27.754755 17.722166 27.585656 17.959057 27.347656 18.150391 C 27.114323 18.337057 26.831333 18.431641 26.5 18.431641 C 26.005334 18.431641 25.626567 18.241281 25.365234 17.863281 C 25.108568 17.485282 24.980469 17.024515 24.980469 16.478516 L 24.980469 15.8125 C 24.980469 15.4625 25.032099 15.145995 25.134766 14.861328 C 25.242099 14.571995 25.413151 14.333151 25.646484 14.146484 C 25.884484 13.955151 26.168667 13.859375 26.5 13.859375 z M 5.5 14.560547 C 5.2526669 14.560547 5.0536301 14.669339 4.9042969 14.888672 C 4.7549637 15.108005 4.6816406 15.399672 4.6816406 15.763672 L 4.6816406 16.527344 C 4.6816406 16.891343 4.7549637 17.183011 4.9042969 17.402344 C 5.0536301 17.621677 5.2526669 17.730469 5.5 17.730469 C 5.7473331 17.730469 5.9463699 17.621677 6.0957031 17.402344 C 6.2450363 17.183011 6.3183594 16.891343 6.3183594 16.527344 L 6.3183594 15.763672 C 6.3183594 15.399672 6.2450363 15.108005 6.0957031 14.888672 C 5.9463699 14.669339 5.7473331 14.560547 5.5 14.560547 z M 9.6992188 14.560547 C 9.4518857 14.560547 9.2548019 14.669339 9.1054688 14.888672 C 8.9561356 15.108005 8.8808594 15.399672 8.8808594 15.763672 L 8.8808594 16.527344 C 8.8808594 16.891343 8.9561356 17.183011 9.1054688 17.402344 C 9.2548019 17.621677 9.4518857 17.730469 9.6992188 17.730469 C 9.9465518 17.730469 10.145589 17.621677 10.294922 17.402344 C 10.444255 17.183011 10.519531 16.891343 10.519531 16.527344 L 10.519531 15.763672 C 10.519531 15.399672 10.444255 15.108005 10.294922 14.888672 C 10.145589 14.669339 9.9465518 14.560547 9.6992188 14.560547 z M 18.099609 14.560547 C 17.852276 14.560547 17.655193 14.669339 17.505859 14.888672 C 17.356526 15.108005 17.28125 15.399672 17.28125 15.763672 L 17.28125 16.527344 C 17.28125 16.891343 17.356526 17.183011 17.505859 17.402344 C 17.655193 17.621677 17.852276 17.730469 18.099609 17.730469 C 18.346942 17.730469 18.545979 17.621677 18.695312 17.402344 C 18.844646 17.183011 18.919922 16.891343 18.919922 16.527344 L 18.919922 15.763672 C 18.919922 15.399672 18.844646 15.108005 18.695312 14.888672 C 18.545979 14.669339 18.346942 14.560547 18.099609 14.560547 z M 26.5 14.560547 C 26.252667 14.560547 26.05363 14.669339 25.904297 14.888672 C 25.754964 15.108005 25.681641 15.399672 25.681641 15.763672 L 25.681641 16.527344 C 25.681641 16.891343 25.754964 17.183011 25.904297 17.402344 C 26.05363 17.621677 26.252667 17.730469 26.5 17.730469 C 26.747333 17.730469 26.94637 17.621677 27.095703 17.402344 C 27.245036 17.183011 27.318359 16.891343 27.318359 16.527344 L 27.318359 15.763672 C 27.318359 15.399672 27.245036 15.108005 27.095703 14.888672 C 26.94637 14.669339 26.747333 14.560547 26.5 14.560547 z M 7.2578125 21.859375 L 7.9492188 21.859375 L 7.9492188 25.626953 L 8.65625 25.626953 C 8.9642497 25.626953 9.1191406 25.743229 9.1191406 25.976562 C 9.1191406 26.209896 8.9642497 26.326172 8.65625 26.326172 L 6.5429688 26.326172 C 6.2349691 26.326172 6.0800781 26.209896 6.0800781 25.976562 C 6.0800781 25.841229 6.1198855 25.749792 6.1992188 25.703125 C 6.278552 25.651792 6.3936356 25.626953 6.5429688 25.626953 L 7.25 25.626953 L 7.25 22.630859 L 6.6757812 23.035156 C 6.6057813 23.095823 6.5100051 23.126953 6.3886719 23.126953 C 6.3093386 23.126953 6.2403541 23.102115 6.1796875 23.050781 C 6.1236876 22.999448 6.0957031 22.931656 6.0957031 22.847656 C 6.0957031 22.77299 6.1118646 22.710729 6.1445312 22.664062 C 6.1771979 22.612729 6.2331667 22.559906 6.3125 22.503906 L 7.2578125 21.859375 z M 11.800781 21.859375 C 12.295447 21.859375 12.671068 22.049735 12.927734 22.427734 C 13.189067 22.805734 13.318359 23.266501 13.318359 23.8125 L 13.318359 24.478516 C 13.318359 24.828515 13.265536 25.148167 13.158203 25.4375 C 13.055537 25.722166 12.884484 25.959057 12.646484 26.150391 C 12.413151 26.337057 12.132114 26.431641 11.800781 26.431641 C 11.306115 26.431641 10.927349 26.241281 10.666016 25.863281 C 10.409349 25.485282 10.28125 25.024515 10.28125 24.478516 L 10.28125 23.8125 C 10.28125 23.4625 10.33288 23.145995 10.435547 22.861328 C 10.54288 22.571995 10.711979 22.333151 10.945312 22.146484 C 11.183312 21.955151 11.469448 21.859375 11.800781 21.859375 z M 16 21.859375 C 16.494666 21.859375 16.870287 22.049735 17.126953 22.427734 C 17.388286 22.805734 17.519531 23.266501 17.519531 23.8125 L 17.519531 24.478516 C 17.519531 24.828515 17.464755 25.148167 17.357422 25.4375 C 17.254755 25.722166 17.085656 25.959057 16.847656 26.150391 C 16.614323 26.337057 16.331333 26.431641 16 26.431641 C 15.505334 26.431641 15.126567 26.241281 14.865234 25.863281 C 14.608568 25.485282 14.480469 25.024515 14.480469 24.478516 L 14.480469 23.8125 C 14.480469 23.4625 14.532099 23.145995 14.634766 22.861328 C 14.742099 22.571995 14.913151 22.333151 15.146484 22.146484 C 15.384484 21.955151 15.668667 21.859375 16 21.859375 z M 19.857422 21.859375 L 20.550781 21.859375 L 20.550781 25.626953 L 21.257812 25.626953 C 21.565812 25.626953 21.71875 25.743229 21.71875 25.976562 C 21.71875 26.209896 21.565812 26.326172 21.257812 26.326172 L 19.142578 26.326172 C 18.834578 26.326172 18.681641 26.209896 18.681641 25.976562 C 18.681641 25.841229 18.721448 25.749792 18.800781 25.703125 C 18.880115 25.651792 18.993245 25.626953 19.142578 25.626953 L 19.849609 25.626953 L 19.849609 22.630859 L 19.275391 23.035156 C 19.205391 23.095823 19.109614 23.126953 18.988281 23.126953 C 18.908948 23.126953 18.839963 23.102115 18.779297 23.050781 C 18.723297 22.999448 18.695312 22.931656 18.695312 22.847656 C 18.695312 22.77299 18.711474 22.710729 18.744141 22.664062 C 18.776807 22.612729 18.832776 22.559906 18.912109 22.503906 L 19.857422 21.859375 z M 24.400391 21.859375 C 24.895057 21.859375 25.270677 22.049735 25.527344 22.427734 C 25.788677 22.805734 25.919922 23.266501 25.919922 23.8125 L 25.919922 24.478516 C 25.919922 24.828515 25.865146 25.148167 25.757812 25.4375 C 25.655146 25.722166 25.484094 25.959057 25.246094 26.150391 C 25.012761 26.337057 24.731724 26.431641 24.400391 26.431641 C 23.905724 26.431641 23.526958 26.241281 23.265625 25.863281 C 23.008959 25.485282 22.880859 25.024515 22.880859 24.478516 L 22.880859 23.8125 C 22.880859 23.4625 22.93249 23.145995 23.035156 22.861328 C 23.142489 22.571995 23.313542 22.333151 23.546875 22.146484 C 23.784875 21.955151 24.069058 21.859375 24.400391 21.859375 z M 11.800781 22.560547 C 11.553448 22.560547 11.354411 22.669339 11.205078 22.888672 C 11.055745 23.108005 10.980469 23.399672 10.980469 23.763672 L 10.980469 24.527344 C 10.980469 24.891343 11.055745 25.183011 11.205078 25.402344 C 11.354411 25.621677 11.553448 25.730469 11.800781 25.730469 C 12.048114 25.730469 12.245198 25.621677 12.394531 25.402344 C 12.543864 25.183011 12.619141 24.891343 12.619141 24.527344 L 12.619141 23.763672 C 12.619141 23.399672 12.543864 23.108005 12.394531 22.888672 C 12.245198 22.669339 12.048114 22.560547 11.800781 22.560547 z M 16 22.560547 C 15.752667 22.560547 15.55363 22.669339 15.404297 22.888672 C 15.254964 23.108005 15.181641 23.399672 15.181641 23.763672 L 15.181641 24.527344 C 15.181641 24.891343 15.254964 25.183011 15.404297 25.402344 C 15.55363 25.621677 15.752667 25.730469 16 25.730469 C 16.247333 25.730469 16.44637 25.621677 16.595703 25.402344 C 16.745036 25.183011 16.818359 24.891343 16.818359 24.527344 L 16.818359 23.763672 C 16.818359 23.399672 16.745036 23.108005 16.595703 22.888672 C 16.44637 22.669339 16.247333 22.560547 16 22.560547 z M 24.400391 22.560547 C 24.153058 22.560547 23.954021 22.669339 23.804688 22.888672 C 23.655354 23.108005 23.580078 23.399672 23.580078 23.763672 L 23.580078 24.527344 C 23.580078 24.891343 23.655354 25.183011 23.804688 25.402344 C 23.954021 25.621677 24.153058 25.730469 24.400391 25.730469 C 24.647724 25.730469 24.844807 25.621677 24.994141 25.402344 C 25.143474 25.183011 25.21875 24.891343 25.21875 24.527344 L 25.21875 23.763672 C 25.21875 23.399672 25.143474 23.108005 24.994141 22.888672 C 24.844807 22.669339 24.647724 22.560547 24.400391 22.560547 z " />
    <path
       style="fill-opacity:1;fill-rule:evenodd;stroke:#ffffff;stroke-width:0;stroke-linejoin:round;stroke-dasharray:none;stroke-opacity:0;paint-order:stroke fill markers;opacity:0"
       d="M 15.0625,31.93223 C 8.64956,31.582174 2.9896631,27.277839 0.89284606,21.15625 0.30292441,19.433993 0.05738071,17.910881 0.05825348,15.979256 0.05942859,13.378499 0.56867856,11.207579 1.7241891,8.8774113 3.8721151,4.5459688 8.0146144,1.3429135 12.720896,0.37455858 14.845189,-0.0625319 17.248941,-0.06067239 19.3125,0.37965777 23.975522,1.3746716 28.038804,4.4833115 30.192809,8.7037088 31.403344,11.075539 31.94535,13.332823 31.944752,16 c -4.14e-4,1.847024 -0.227879,3.279685 -0.793855,5 -1.848524,5.618684 -6.728891,9.797786 -12.557147,10.752799 -0.4125,0.06759 -1.03125,0.137522 -1.375,0.155401 -0.34375,0.01788 -0.779687,0.04096 -0.96875,0.0513 -0.189062,0.01033 -0.723437,-0.0019 -1.1875,-0.02727 z M 10.625,19.470191 c 0.223438,-0.05308 0.567969,-0.155897 0.765625,-0.228474 L 11.75,19.109759 v -0.561566 c 0,-0.511159 -0.0098,-0.557325 -0.109375,-0.514317 -0.597298,0.258029 -1.259352,0.467821 -1.6705881,0.529376 C 8.7971769,18.738811 7.8544513,18.37491 7.4215406,17.579511 7.274575,17.309486 7.0661056,16.617404 7.0634238,16.390625 7.0627,16.329428 7.5974238,16.3125 9.53125,16.3125 H 12 l -9.24e-4,-0.640625 c -5.08e-4,-0.352344 -0.04285,-0.818481 -0.0941,-1.03586 -0.398945,-1.692249 -1.793204,-2.540679 -3.560136,-2.166403 -0.6113675,0.129502 -1.0345475,0.355096 -1.455215,0.775763 -0.6244069,0.624407 -0.9301379,1.406796 -0.9909329,2.535875 -0.1067038,1.981695 0.8524167,3.400334 2.5388079,3.755163 0.4981919,0.104823 1.609111,0.07119 2.1875,-0.06622 z m 14.42451,0.05566 c 0.264957,-0.05453 0.615334,-0.156431 0.778615,-0.226446 L 26.125,19.172107 v -0.555856 -0.555857 l -0.299544,0.151791 c -0.74086,0.375422 -1.724362,0.486123 -2.367363,0.266464 C 22.601532,18.186036 22.064671,17.231056 22.064671,16 c 0,-1.231056 0.536861,-2.186036 1.393422,-2.478649 0.643001,-0.219658 1.626503,-0.108958 2.367363,0.266464 L 26.125,13.939606 v -0.566742 -0.566742 l -0.218467,-0.09128 c -0.413301,-0.172688 -0.93894,-0.284165 -1.500283,-0.318179 -1.63477,-0.09906 -2.842662,0.683535 -3.333446,2.159738 -0.139649,0.420045 -0.158319,0.583054 -0.16176,1.412351 -0.0042,1.023458 0.06213,1.359789 0.400212,2.027983 0.651293,1.287223 2.077998,1.870813 3.738254,1.529122 z m -10.236538,-2.07273 c 2.6e-4,-1.091406 0.02955,-2.163552 0.06508,-2.382548 0.155573,-0.958782 0.738802,-1.549199 1.598506,-1.618208 0.531533,-0.04267 0.800387,0.02023 1.05971,0.247921 0.525824,0.461681 0.587651,0.839684 0.588259,3.596585 L 18.125,19.4375 h 0.566866 0.566867 l -0.0236,-2.546875 C 19.214349,14.646779 19.198137,14.302851 19.098876,14 c -0.244645,-0.746433 -0.580738,-1.161397 -1.157215,-1.428782 -0.303268,-0.140664 -0.432272,-0.161602 -1.00536,-0.163169 -0.618205,-0.0017 -0.682267,0.01042 -1.073231,0.202833 -0.274137,0.13492 -0.523909,0.32294 -0.733176,0.551912 L 14.8125,13.510073 V 13.036287 12.5625 H 14.25 13.6875 V 16 19.4375 h 0.5625 0.5625 z"
       id="path52" />
  </g>
</svg>
